<?xml version="1.0" encoding="utf-8"?>
<svg version="1.2" baseProfile="tiny-ps" xmlns="http://www.w3.org/2000/svg" width="1134px" height="1134px" viewBox="0 0 1134 1134" preserveAspectRatio="xMidYMid meet">
 <g fill="#2369c8">
  <path d="M5.54 701 l0 -212.63 33.11 0 c38.54 0 45.74 -0.89 59.36 -7.64 20.71 -10.19 35.66 -30.79 39.09 -53.82 0.66 -4.21 1.44 -12.51 1.88 -18.27 2.55 -40.86 18.60 -82.84 44.85 -117.39 35.44 -46.62 90.14 -78.29 151.83 -88.15 15.61 -2.55 50.28 -2.44 66.89 0 26.91 4.10 49.17 11.07 73.20 22.81 17.61 8.53 34.33 19.38 47.51 30.56 13.40 11.41 33.89 31.78 33.55 33.33 -0.33 1.33 -83.83 85.60 -84.83 85.60 -0.33 0 -6.09 -5.65 -12.85 -12.51 -22.48 -22.92 -37.98 -32.34 -63.46 -38.65 -14.62 -3.65 -38.87 -3.32 -53.60 0.55 -19.16 5.09 -34.88 13.62 -47.95 26.14 -15.95 15.39 -24.92 30.23 -31.45 52.16 -1.55 5.32 -1.88 16.83 -2.44 87.49 -0.78 78.52 -0.89 81.84 -3.21 92.47 -4.98 22.37 -11.41 38.10 -23.15 55.92 -5.09 7.75 -18.38 21.71 -77.96 81.40 -39.42 39.65 -71.76 72.43 -71.76 72.87 0 0.44 68.88 0.66 153.16 0.44 151.83 -0.33 153.16 -0.33 162.46 -2.66 17.28 -4.43 30.56 -11.07 42.86 -21.59 9.97 -8.42 148.73 -151.05 171.32 -175.86 11.07 -12.29 15.28 -20.71 15.95 -32.45 0.66 -11.18 -1.33 -20.38 -6.31 -28.57 -2.33 -3.77 -13.29 -16.17 -25.80 -29.13 -12.07 -12.51 -21.93 -23.03 -21.93 -23.59 0 -0.44 18.60 -19.82 41.31 -42.97 l41.31 -41.97 3.21 2.44 c6.31 4.98 50.28 51.27 56.26 59.14 12.85 17.28 23.26 38.54 28.46 58.69 4.87 18.83 5.87 28.68 5.20 48.28 -1.33 37.54 -12.96 68.77 -36.21 97.12 -3.54 4.32 -23.81 25.69 -44.96 47.51 -21.26 21.93 -46.07 47.62 -55.26 57.14 -92.80 97.01 -92.14 96.35 -112.96 110.19 -27.13 18.05 -51.72 28.13 -86.05 35.22 -11.30 2.33 -12.51 2.33 -210.96 2.66 l-199.67 0.33 0 -212.63z"/>
  <path d="M564.23 840.53 c-0.44 -0.66 -0.33 -1.77 0.33 -2.44 0.66 -0.66 1.33 -0.66 1.88 0.22 0.44 0.66 0.33 1.77 -0.33 2.44 -0.66 0.66 -1.33 0.66 -1.88 -0.22z"/>
  <path d="M775.20 801.22 c0 -0.89 0.22 -1.66 0.44 -1.66 0.22 0 4.43 -0.78 9.19 -1.66 10.74 -2.10 10.30 -2.10 10.30 0.44 0 1.66 -1.33 2.33 -6.98 3.32 -9.75 1.66 -12.96 1.55 -12.96 -0.44z"/>
  <path d="M804.21 793.80 c0.33 -0.78 2.10 -1.99 3.99 -2.77 3.43 -1.44 3.54 -1.33 3.54 1.33 0 2.44 -0.44 2.77 -3.99 2.77 -2.55 0 -3.77 -0.44 -3.54 -1.33z"/>
  <path d="M670.10 731.56 c-1 -1.11 -0.89 -1.77 0.44 -2.88 1.44 -1.22 1.66 -0.89 1.66 1.55 0 3.32 -0.33 3.54 -2.10 1.33z"/>
  <path d="M1120.05 632.23 c0.33 -1.88 0.66 -7.86 0.66 -13.29 0 -9.08 0.22 -9.86 2.21 -9.86 2.10 0 2.21 0.78 2.21 13.29 l0 13.29 -2.88 0 c-2.66 0 -2.88 -0.33 -2.21 -3.43z"/>
  <path d="M1120.71 403.10 c0 -186.38 0 -187.15 2.21 -187.15 2.21 0 2.21 0.78 2.21 187.15 0 186.38 0 187.15 -2.21 187.15 -2.21 0 -2.21 -0.78 -2.21 -187.15z"/>
  <path d="M626.80 246.07 c0 -0.89 5.76 -4.65 7.09 -4.65 0.33 0 0.66 1.22 0.66 2.77 0 2.44 -0.44 2.77 -3.88 2.77 -2.10 0 -3.88 -0.44 -3.88 -0.89z"/>
  <path d="M651.16 232.56 c0 -1.11 4.32 -3.32 15.84 -7.86 l5.20 -2.10 0 2.77 c0 2.21 -0.55 2.77 -2.77 2.77 -1.55 0 -2.77 0.55 -2.77 1.11 0 0.66 -1.77 1.11 -3.88 1.11 -2.66 0 -3.88 0.55 -3.88 1.66 0 1.11 -1.22 1.66 -3.88 1.66 -2.10 0 -3.88 -0.55 -3.88 -1.11z"/>
  <path d="M673.53 223.48 c1.33 -3.99 48.06 -14.18 65.01 -14.18 4.76 0 5.65 0.33 5.65 1.99 0 1.88 -1.33 2.21 -11.30 2.77 -6.31 0.44 -17.39 1.99 -24.70 3.54 -7.31 1.55 -16.17 3.43 -19.60 4.21 -3.54 0.66 -6.42 1.66 -6.42 2.10 0 0.55 -1.99 0.89 -4.54 0.89 -3.10 0 -4.32 -0.44 -4.10 -1.33z"/>
  <path d="M1119.60 211.07 c0 -1.55 3.77 -3.10 4.87 -1.99 1.66 1.55 0.44 3.54 -2.10 3.54 -1.66 0 -2.77 -0.66 -2.77 -1.55z"/>
  <path d="M716.83 196.35 c1 -0.22 2.77 -0.22 3.88 0 1 0.33 0.11 0.55 -1.99 0.55 -2.10 0 -2.99 -0.22 -1.88 -0.55z"/>
  <path d="M727.91 195.24 c1 -0.22 2.77 -0.22 3.88 0 1 0.33 0.11 0.55 -1.99 0.55 -2.10 0 -2.99 -0.22 -1.88 -0.55z"/>
 </g>
 <g fill="#e5b6ea">
  <path d="M736.21 918.61 c-44.30 -6.09 -84.94 -23.48 -119.93 -51.61 -9.75 -7.75 -41.75 -39.65 -41.31 -40.97 0.22 -0.55 18.94 -20.04 41.64 -43.52 l41.42 -42.75 17.83 17.05 c9.86 9.41 20.16 18.83 22.92 20.93 21.15 15.95 44.08 22.70 72.87 21.59 12.29 -0.55 15.61 -1.11 26.25 -4.54 36.10 -11.85 62.46 -40.09 72.09 -77.41 1.66 -6.09 1.88 -17.05 2.21 -82.95 0.33 -85.05 0.44 -87.49 8.19 -110.74 6.64 -20.27 14.40 -34.11 27.69 -49.83 3.88 -4.43 37.65 -38.98 75.19 -76.63 l68.22 -68.44 -158.36 0.44 c-176.19 0.33 -164.01 -0.11 -184.05 7.97 -17.61 7.09 -22.04 10.85 -69.44 58.58 -72.87 73.31 -126.25 128.35 -130.12 134 -8.53 12.40 -10.85 29.68 -5.76 42.97 3.43 8.97 7.64 14.06 32 39.65 l21.37 22.37 -37.65 38.32 c-20.71 21.15 -39.53 40.31 -41.86 42.64 l-4.32 4.10 -23.81 -24.03 c-27.24 -27.57 -35.55 -36.99 -43.63 -49.61 -11.41 -17.39 -17.05 -31.12 -22.26 -53.16 -2.88 -12.07 -3.10 -15.17 -3.21 -34.88 0 -16.83 0.44 -23.70 1.99 -31.01 4.87 -22.59 10.52 -37.87 20.27 -54.37 11.52 -19.38 9.52 -17.39 130.01 -138.98 74.09 -74.75 79.29 -79.51 103.32 -93.80 22.26 -13.29 44.52 -21.26 77.41 -27.57 12.51 -2.44 12.62 -2.44 211.85 -2.77 l199.34 -0.44 -0.22 211.63 c-0.11 116.39 -0.44 212.40 -0.78 213.29 -0.44 1.33 -5.76 1.55 -32.45 1.55 -28.13 0 -33 0.33 -41.20 2.21 -14.06 3.43 -23.37 8.75 -34.44 19.82 -15.17 15.28 -20.16 27.46 -22.26 53.82 -1.77 23.70 -4.98 39.76 -12.07 59.69 -28.24 79.73 -102.77 138.10 -188.82 147.95 -13.51 1.44 -42.97 1.22 -56.15 -0.55z"/>
 </g>
</svg>